<svg xmlns="http://www.w3.org/2000/svg" version="1.1" xmlns:xlink="http://www.w3.org/1999/xlink" xmlns:svgjs="http://svgjs.dev/svgjs" width="1000" height="1000" viewBox="0 0 1000 1000"><rect width="1000" height="1000" fill="#ffffff"></rect><g transform="matrix(0.7,0,0,0.7,149.5757681378571,401.63368493571465)"><svg viewBox="0 0 396 112" data-background-color="#ffffff" preserveAspectRatio="xMidYMid meet" height="282" width="1000" xmlns="http://www.w3.org/2000/svg" xmlns:xlink="http://www.w3.org/1999/xlink"><g id="tight-bounds" transform="matrix(1,0,0,1,0.2399940248694179,-0.1893247862210785)"><svg viewBox="0 0 395.52 112.37864957244214" height="112.37864957244214" width="395.52"><g><svg viewBox="0 0 577.0355934612735 163.95246952975992" height="112.37864957244214" width="395.52"><g transform="matrix(1,0,0,1,181.51559346127354,50.663692837882266)"><svg viewBox="0 0 395.52 62.62508385399539" height="62.62508385399539" width="395.52"><g id="textblocktransform"><svg viewBox="0 0 395.52 62.62508385399539" height="62.62508385399539" width="395.52" id="textblock"><g><svg viewBox="0 0 395.52 62.62508385399539" height="62.62508385399539" width="395.52"><g transform="matrix(1,0,0,1,0,0)"><svg width="395.52" viewBox="0.8500000238418579 -37.150001525878906 304.0799865722656 48.150001525878906" height="62.62508385399539" data-palette-color="#026c7e"><path d="M16 0.5L16 0.5Q13 0.5 10.3-0.28 7.6-1.05 5.48-2.55 3.35-4.05 2.13-6.25 0.9-8.45 0.85-11.35L0.85-11.35Q0.85-11.8 1.15-12.13 1.45-12.45 1.9-12.45L1.9-12.45 10.4-12.45Q11.2-12.45 11.58-12.1 11.95-11.75 12.25-10.95L12.25-10.95Q12.6-9.95 13.13-9.28 13.65-8.6 14.45-8.3 15.25-8 16.3-8L16.3-8Q18.25-8 19.33-9.25 20.4-10.5 20.4-13.2L20.4-13.2 20.4-26.2 4.85-26.2Q4.3-26.2 3.93-26.58 3.55-26.95 3.55-27.5L3.55-27.5 3.55-33.7Q3.55-34.25 3.93-34.63 4.3-35 4.85-35L4.85-35 30.2-35Q30.75-35 31.13-34.63 31.5-34.25 31.5-33.7L31.5-33.7 31.5-12.85Q31.5-8.4 29.48-5.43 27.45-2.45 23.93-0.98 20.4 0.5 16 0.5ZM43.3 0L35.6 0Q35.15 0 34.85-0.33 34.55-0.65 34.55-1.1L34.55-1.1Q34.55-1.3 34.6-1.45L34.6-1.45 46-33.45Q46.2-34 46.7-34.5 47.2-35 48.1-35L48.1-35 57.25-35Q58.2-35 58.7-34.5 59.2-34 59.35-33.45L59.35-33.45 70.8-1.45Q70.85-1.3 70.85-1.1L70.85-1.1Q70.85-0.65 70.52-0.33 70.2 0 69.75 0L69.75 0 62.05 0Q61.2 0 60.8-0.4 60.4-0.8 60.25-1.15L60.25-1.15 58.7-5.35 46.65-5.35 45.1-1.15Q44.95-0.8 44.57-0.4 44.2 0 43.3 0L43.3 0ZM52.65-25.05L48.95-13.8 56.4-13.8 52.65-25.05ZM93.55 0L84.05 0Q83.1 0 82.57-0.5 82.05-1 81.9-1.55L81.9-1.55 72.05-33.55Q72-33.75 72-33.9L72-33.9Q72-34.35 72.32-34.68 72.65-35 73.1-35L73.1-35 80.85-35Q81.75-35 82.25-34.5 82.75-34 82.9-33.5L82.9-33.5 88.8-12.65 94.7-33.5Q94.85-34 95.35-34.5 95.85-35 96.75-35L96.75-35 104.5-35Q104.95-35 105.25-34.68 105.55-34.35 105.55-33.9L105.55-33.9Q105.55-33.75 105.5-33.55L105.5-33.55 95.7-1.55Q95.55-1 95.02-0.5 94.5 0 93.55 0L93.55 0ZM115.54 0L107.84 0Q107.39 0 107.09-0.33 106.79-0.65 106.79-1.1L106.79-1.1Q106.79-1.3 106.84-1.45L106.84-1.45 118.24-33.45Q118.44-34 118.94-34.5 119.44-35 120.34-35L120.34-35 129.49-35Q130.44-35 130.94-34.5 131.44-34 131.59-33.45L131.59-33.45 143.04-1.45Q143.09-1.3 143.09-1.1L143.09-1.1Q143.09-0.65 142.77-0.33 142.44 0 141.99 0L141.99 0 134.29 0Q133.44 0 133.04-0.4 132.64-0.8 132.49-1.15L132.49-1.15 130.94-5.35 118.89-5.35 117.34-1.15Q117.19-0.8 116.82-0.4 116.44 0 115.54 0L115.54 0ZM124.89-25.05L121.19-13.8 128.64-13.8 124.89-25.05ZM165.64 0L157.69 0Q157.19 0 156.79-0.38 156.39-0.75 156.39-1.3L156.39-1.3 156.39-33.7Q156.39-34.25 156.79-34.63 157.19-35 157.69-35L157.69-35 181.79-35Q182.34-35 182.74-34.63 183.14-34.25 183.14-33.7L183.14-33.7 183.14-27.35Q183.14-26.85 182.74-26.45 182.34-26.05 181.79-26.05L181.79-26.05 166.94-26.05 166.94-20.55 180.79-20.55Q181.34-20.55 181.74-20.18 182.14-19.8 182.14-19.25L182.14-19.25 182.14-12.95Q182.14-12.4 181.74-12.03 181.34-11.65 180.79-11.65L180.79-11.65 166.94-11.65 166.94-1.3Q166.94-0.75 166.56-0.38 166.19 0 165.64 0L165.64 0ZM196.24 0L188.79 0Q188.24 0 187.86-0.38 187.49-0.75 187.49-1.3L187.49-1.3 187.49-34.2Q187.49-34.75 187.86-35.13 188.24-35.5 188.79-35.5L188.79-35.5 196.24-35.5Q196.74-35.5 197.14-35.13 197.54-34.75 197.54-34.2L197.54-34.2 197.54-1.3Q197.54-0.75 197.14-0.38 196.74 0 196.24 0L196.24 0ZM211.43 0L204.03 0Q203.48 0 203.11-0.38 202.73-0.75 202.73-1.3L202.73-1.3 202.73-24.7Q202.73-25.25 203.11-25.63 203.48-26 204.03-26L204.03-26 211.43-26Q211.98-26 212.38-25.63 212.78-25.25 212.78-24.7L212.78-24.7 212.78-1.3Q212.78-0.75 212.38-0.38 211.98 0 211.43 0L211.43 0ZM211.33-29.25L204.13-29.25Q203.58-29.25 203.21-29.63 202.83-30 202.83-30.55L202.83-30.55 202.83-35.8Q202.83-36.35 203.21-36.75 203.58-37.15 204.13-37.15L204.13-37.15 211.33-37.15Q211.88-37.15 212.28-36.75 212.68-36.35 212.68-35.8L212.68-35.8 212.68-30.55Q212.68-30 212.28-29.63 211.88-29.25 211.33-29.25L211.33-29.25ZM231.63 11L231.63 11Q227.58 11 224.91 9.98 222.23 8.95 220.63 7.48 219.03 6 218.36 4.58 217.68 3.15 217.63 2.35L217.63 2.35Q217.58 1.8 217.98 1.43 218.38 1.05 218.93 1.05L218.93 1.05 226.98 1.05Q227.48 1.05 227.81 1.3 228.13 1.55 228.33 2.05L228.33 2.05Q228.58 2.5 228.91 2.95 229.23 3.4 229.83 3.65 230.43 3.9 231.38 3.9L231.38 3.9Q232.53 3.9 233.26 3.5 233.98 3.1 234.36 2.25 234.73 1.4 234.73 0L234.73 0 234.73-3.35Q233.53-2.2 231.81-1.53 230.08-0.85 227.73-0.85L227.73-0.85Q225.28-0.85 223.36-1.53 221.43-2.2 220.11-3.6 218.78-5 218.01-7.15 217.23-9.3 217.13-12.3L217.13-12.3Q217.08-13.6 217.13-14.9L217.13-14.9Q217.23-17.7 217.98-19.88 218.73-22.05 220.08-23.5 221.43-24.95 223.36-25.73 225.28-26.5 227.73-26.5L227.73-26.5Q230.33-26.5 232.23-25.53 234.13-24.55 235.33-23L235.33-23 235.33-24.7Q235.33-25.25 235.71-25.63 236.08-26 236.63-26L236.63-26 243.88-26Q244.43-26 244.81-25.63 245.18-25.25 245.18-24.7L245.18-24.7 245.23-0.8Q245.23 3.25 243.51 5.85 241.78 8.45 238.73 9.73 235.68 11 231.63 11ZM231.18-8.45L231.18-8.45Q232.38-8.45 233.13-8.95 233.88-9.45 234.26-10.28 234.63-11.1 234.73-12.15L234.73-12.15Q234.78-12.6 234.78-13.6 234.78-14.6 234.73-15L234.73-15Q234.63-16.05 234.26-16.88 233.88-17.7 233.13-18.2 232.38-18.7 231.18-18.7L231.18-18.7Q229.88-18.7 229.13-18.18 228.38-17.65 228.06-16.73 227.73-15.8 227.63-14.6L227.63-14.6Q227.53-13.55 227.63-12.55L227.63-12.55Q227.73-11.35 228.06-10.43 228.38-9.5 229.13-8.97 229.88-8.45 231.18-8.45ZM259.83 0L251.73 0Q251.18 0 250.8-0.38 250.43-0.75 250.43-1.3L250.43-1.3 250.43-34.2Q250.43-34.75 250.8-35.13 251.18-35.5 251.73-35.5L251.73-35.5 259.83-35.5Q260.33-35.5 260.73-35.13 261.13-34.75 261.13-34.2L261.13-34.2 261.13-23.25Q262.43-24.75 264.4-25.63 266.38-26.5 268.88-26.5L268.88-26.5Q271.58-26.5 273.85-25.25 276.13-24 277.5-21.5 278.88-19 278.88-15.2L278.88-15.2 278.88-1.3Q278.88-0.75 278.48-0.38 278.08 0 277.58 0L277.58 0 269.43 0Q268.88 0 268.5-0.38 268.13-0.75 268.13-1.3L268.13-1.3 268.13-14.85Q268.13-16.7 267.23-17.7 266.33-18.7 264.68-18.7L264.68-18.7Q263.03-18.7 262.08-17.7 261.13-16.7 261.13-14.85L261.13-14.85 261.13-1.3Q261.13-0.75 260.73-0.38 260.33 0 259.83 0L259.83 0ZM303.63 0L298.48 0Q295.07 0 292.5-1 289.93-2 288.5-4.28 287.07-6.55 287.07-10.3L287.07-10.3 287.07-18.35 283.13-18.35Q282.57-18.35 282.2-18.73 281.82-19.1 281.82-19.65L281.82-19.65 281.82-24.7Q281.82-25.25 282.2-25.63 282.57-26 283.13-26L283.13-26 287.07-26 287.07-34.2Q287.07-34.75 287.45-35.13 287.82-35.5 288.38-35.5L288.38-35.5 295.63-35.5Q296.18-35.5 296.55-35.13 296.93-34.75 296.93-34.2L296.93-34.2 296.93-26 303.23-26Q303.78-26 304.15-25.63 304.53-25.25 304.53-24.7L304.53-24.7 304.53-19.65Q304.53-19.1 304.15-18.73 303.78-18.35 303.23-18.35L303.23-18.35 296.93-18.35 296.93-11.15Q296.93-9.7 297.53-8.88 298.13-8.05 299.43-8.05L299.43-8.05 303.63-8.05Q304.18-8.05 304.55-7.68 304.93-7.3 304.93-6.75L304.93-6.75 304.93-1.3Q304.93-0.75 304.55-0.38 304.18 0 303.63 0L303.63 0Z" opacity="1" transform="matrix(1,0,0,1,0,0)" fill="#000000" class="wordmark-text-0" data-fill-palette-color="primary" id="text-0"></path></svg></g></svg></g></svg></g></svg></g><g><svg viewBox="0 0 166.73131416535773 163.95246952975992" height="163.95246952975992" width="166.73131416535773"><g><svg xmlns="http://www.w3.org/2000/svg" xmlns:xlink="http://www.w3.org/1999/xlink" version="1.1" x="0" y="0" viewBox="2 2 60 59.000003814697266" style="enable-background:new 0 0 64 64;" xml:space="preserve" height="163.95246952975992" width="166.73131416535773" class="icon-icon-0" data-fill-palette-color="accent" id="icon-0"><path d="M62 6.536C62 4.035 59.966 2 57.465 2c-1.211 0-2.351 0.472-3.207 1.329l-5.528 5.527L37.316 5.051c-0.292-0.097-0.614-0.054-0.871 0.117l-3 2C33.175 7.348 33.01 7.648 33 7.972c-0.009 0.325 0.141 0.633 0.4 0.828l9.533 7.151-6.318 6.984-6.474-0.925c-0.317-0.043-0.627 0.06-0.849 0.283l-2 2c-0.24 0.24-0.342 0.586-0.271 0.919 0.072 0.332 0.308 0.605 0.626 0.725l7.528 2.823 1.861 6.516c0.098 0.34 0.368 0.604 0.711 0.693C37.832 35.99 37.916 36 38 36c0.262 0 0.518-0.103 0.707-0.293l2-2C40.895 33.52 41 33.265 41 33v-5.738c0.356-0.444 1.733-1.877 6.891-6.487l7.307 9.821c0.194 0.261 0.54 0.414 0.828 0.403 0.325-0.008 0.626-0.174 0.807-0.445l2-3c0.171-0.257 0.214-0.578 0.116-0.871l-3.79-11.372c2.662-2.37 4.673-4.502 5.664-5.597C61.582 8.878 62 7.796 62 6.667V6.536zM60 6.667c0 0.631-0.234 1.237-0.659 1.706-1.024 1.131-3.165 3.397-5.999 5.875-0.304 0.265-0.418 0.687-0.29 1.069l3.845 11.536-0.941 1.413-7.111-9.56c-0.168-0.225-0.422-0.37-0.701-0.398-0.276-0.029-0.557 0.062-0.767 0.248C39 26.009 39 26.403 39 27v5.586l-0.506 0.505-1.532-5.366c-0.088-0.305-0.313-0.55-0.61-0.662l-6.546-2.455 0.548-0.548 6.505 0.929c0.334 0.047 0.661-0.073 0.883-0.319l7.411-8.191c0.189-0.208 0.281-0.487 0.254-0.767-0.026-0.28-0.17-0.536-0.396-0.704l-9.28-6.961 1.417-0.944 11.536 3.845c0.359 0.121 0.756 0.026 1.023-0.242l5.965-5.964C56.151 4.264 56.788 4 57.465 4 58.862 4 60 5.138 60 6.536V6.667z" fill="#000000" data-fill-palette-color="accent"></path><path d="M11 60c0.266 0 0.521-0.106 0.708-0.294C12.047 59.366 20 51.323 20 46c0-5.009-3.364-8-9-8s-9 2.991-9 8c0 5.323 7.953 13.366 8.292 13.706C10.479 59.894 10.734 60 11 60zM11 40c2.614 0 7 0.779 7 6 0 3.374-4.542 8.929-7 11.558C8.542 54.931 4 49.378 4 46 4 40.779 8.386 40 11 40z" fill="#000000" data-fill-palette-color="accent"></path><path d="M15 46c0-2.206-1.794-4-4-4s-4 1.794-4 4 1.794 4 4 4S15 48.206 15 46zM9 46c0-1.103 0.897-2 2-2s2 0.897 2 2-0.897 2-2 2S9 47.103 9 46z" fill="#000000" data-fill-palette-color="accent"></path><path d="M47.999 48.949c-0.196-3.822-7.709-5.836-15.663-7.97-4.922-1.32-12.358-3.314-12.336-4.966 0.005-0.384 0.666-2.432 13.203-5.034l-0.406-1.958C19.729 31.733 18.024 34.168 18 35.986c-0.041 3.052 5.224 4.62 13.817 6.924 5.935 1.592 14.062 3.771 14.184 6.141 0.062 1.214-2.078 4.618-23.246 9.979l0.49 1.938C45.442 55.347 48.134 51.592 47.999 48.949z" fill="#000000" data-fill-palette-color="accent"></path><rect x="19" y="59" width="2" height="2" fill="#000000" data-fill-palette-color="accent"></rect><rect x="15" y="59" width="2" height="2" fill="#000000" data-fill-palette-color="accent"></rect></svg></g></svg></g></svg></g><defs></defs></svg><rect width="395.52" height="112.37864957244214" fill="none" stroke="none" visibility="hidden"></rect></g></svg></g></svg>